<svg xmlns="http://www.w3.org/2000/svg" xmlns:xlink="http://www.w3.org/1999/xlink" width="1080" zoomAndPan="magnify" viewBox="0 0 810 809.999993" height="1080" preserveAspectRatio="xMidYMid meet" version="1.0"><path stroke-linecap="round" transform="matrix(0.637431, 0, 0, 0.637431, 486.256467, 319.006175)" fill-opacity="1" fill="#fffbfb" fill-rule="nonzero" stroke-linejoin="round" d="M 0.00211076 -55.597855 C 30.703987 -55.597855 55.602534 -30.705435 55.602534 0.00256867 C 55.602534 30.704445 30.703987 55.602992 0.00211076 55.602992 C -30.705893 55.602992 -55.598312 30.704445 -55.598312 0.00256867 C -55.598312 -30.705435 -30.705893 -55.597855 0.00211076 -55.597855 Z M 0.00211076 -55.597855 " stroke="#879cd0" stroke-width="6" stroke-opacity="1" stroke-miterlimit="4"/><path stroke-linecap="round" transform="matrix(0.637431, 0, 0, 0.637431, 497.347778, 306.152378)" fill="none" stroke-linejoin="round" d="M -38.202885 14.474563 C -38.202885 14.474563 -17.397921 35.43273 -17.397921 35.43273 C -17.397921 35.43273 38.202502 -35.432838 38.202502 -35.432838 " stroke="#879cd0" stroke-width="6" stroke-opacity="1" stroke-miterlimit="4"/><path fill="#879cd0" d="M 645.242188 429.289062 C 641.324219 428.210938 637.644531 426.445312 634.199219 423.996094 C 630.753906 421.546875 627.84375 418.496094 625.464844 414.835938 C 625.464844 414.835938 635.511719 407.929688 635.511719 407.929688 C 637.21875 410.3125 639.21875 412.429688 641.523438 414.277344 C 643.824219 416.125 646.398438 417.441406 649.25 418.226562 C 652.097656 419.011719 654.304688 419.109375 655.875 418.519531 C 657.441406 417.929688 658.429688 416.890625 658.839844 415.40625 C 659.117188 414.398438 659.140625 413.496094 658.914062 412.699219 C 658.6875 411.902344 658.261719 411.128906 657.636719 410.382812 C 657.011719 409.632812 656.199219 408.871094 655.203125 408.082031 C 654.207031 407.296875 653.109375 406.417969 651.90625 405.449219 C 651.90625 405.449219 645.308594 400.183594 645.308594 400.183594 C 643.871094 399.148438 642.523438 397.949219 641.273438 396.582031 C 640.019531 395.214844 639.003906 393.738281 638.230469 392.152344 C 637.453125 390.5625 636.953125 388.828125 636.738281 386.949219 C 636.523438 385.070312 636.707031 383.0625 637.296875 380.925781 C 637.953125 378.550781 639.085938 376.453125 640.707031 374.628906 C 642.324219 372.808594 644.289062 371.371094 646.589844 370.3125 C 648.894531 369.253906 651.472656 368.636719 654.332031 368.46875 C 657.1875 368.296875 660.191406 368.644531 663.335938 369.511719 C 666.898438 370.492188 670.160156 372.09375 673.128906 374.316406 C 676.089844 376.539062 678.566406 379.261719 680.550781 382.492188 C 680.550781 382.492188 671.589844 388.933594 671.589844 388.933594 C 669.980469 386.894531 668.277344 385.195312 666.480469 383.835938 C 664.683594 382.480469 662.359375 381.410156 659.511719 380.625 C 657.3125 380.019531 655.425781 379.976562 653.84375 380.5 C 652.265625 381.023438 651.234375 382.144531 650.761719 383.867188 C 650.289062 385.589844 650.796875 387.152344 652.296875 388.550781 C 653.792969 389.957031 655.828125 391.554688 658.402344 393.347656 C 658.402344 393.347656 664.601562 398.3125 664.601562 398.3125 C 668.066406 400.800781 670.570312 403.597656 672.109375 406.703125 C 673.648438 409.8125 673.855469 413.414062 672.726562 417.507812 C 672.054688 419.941406 670.917969 422.105469 669.3125 423.992188 C 667.703125 425.882812 665.730469 427.378906 663.378906 428.488281 C 661.027344 429.597656 658.324219 430.257812 655.265625 430.46875 C 652.203125 430.679688 648.863281 430.289062 645.242188 429.289062 Z M 645.242188 429.289062 " fill-opacity="1" fill-rule="nonzero"/><path fill="#879cd0" d="M 640.488281 434.101562 C 640.488281 434.101562 660.328125 362.078125 660.328125 362.078125 C 660.328125 362.078125 665.894531 363.613281 665.894531 363.613281 C 665.894531 363.613281 646.054688 435.636719 646.054688 435.636719 C 646.054688 435.636719 640.488281 434.101562 640.488281 434.101562 Z M 640.488281 434.101562 " fill-opacity="1" fill-rule="nonzero"/><path stroke-linecap="round" transform="matrix(0.637431, 0, 0, 0.637431, 615.320253, 261.462136)" fill-opacity="1" fill="#fffbfb" fill-rule="nonzero" stroke-linejoin="round" d="M -54.442115 -85.697496 C -54.442115 -85.697496 54.442303 -85.697496 54.442303 -85.697496 C 54.442303 -85.697496 54.442303 85.693735 54.442303 85.693735 C 54.442303 85.693735 -54.442115 85.693735 -54.442115 85.693735 C -54.442115 85.693735 -54.442115 -85.697496 -54.442115 -85.697496 Z M -54.442115 -85.697496 " stroke="#879cd0" stroke-width="6" stroke-opacity="1" stroke-miterlimit="4"/><path stroke-linecap="round" transform="matrix(0.637431, 0, 0, 0.637431, 615.530541, 265.165612)" fill-opacity="1" fill="#fffbfb" fill-rule="nonzero" stroke-linejoin="round" d="M -39.954223 -32.224081 C -39.954223 -32.224081 39.956449 -32.224081 39.956449 -32.224081 C 39.956449 -32.224081 39.956449 32.225346 39.956449 32.225346 C 39.956449 32.225346 -39.954223 32.225346 -39.954223 32.225346 C -39.954223 32.225346 -39.954223 -32.224081 -39.954223 -32.224081 Z M -39.954223 -32.224081 " stroke="#879cd0" stroke-width="6" stroke-opacity="1" stroke-miterlimit="4"/><path stroke-linecap="round" transform="matrix(0.637431, 0, 0, 0.637431, 615.425421, 226.76998)" fill-opacity="1" fill="#fffbfb" fill-rule="nonzero" stroke-linejoin="round" d="M -40.120229 -16.111528 C -40.120229 -16.111528 40.121361 -16.111528 40.121361 -16.111528 C 40.121361 -16.111528 40.121361 16.110121 40.121361 16.110121 C 40.121361 16.110121 -40.120229 16.110121 -40.120229 16.110121 C -40.120229 16.110121 -40.120229 -16.111528 -40.120229 -16.111528 Z M -40.120229 -16.111528 " stroke="#879cd0" stroke-width="6" stroke-opacity="1" stroke-miterlimit="4"/><path stroke-linecap="round" transform="matrix(0.637431, 0, 0, 0.637431, 602.689485, 299.864127)" fill-opacity="1" fill="#fffbfb" fill-rule="nonzero" stroke-linejoin="round" d="M -20.140113 -10.627484 C -20.140113 -10.627484 20.140013 -10.627484 20.140013 -10.627484 C 20.140013 -10.627484 20.140013 10.63096 20.140013 10.63096 C 20.140013 10.63096 -20.140113 10.63096 -20.140113 10.63096 C -20.140113 10.63096 -20.140113 -10.627484 -20.140113 -10.627484 Z M -20.140113 -10.627484 " stroke="#879cd0" stroke-width="6" stroke-opacity="1" stroke-miterlimit="4"/><path stroke-linecap="round" transform="matrix(0.637431, 0, 0, 0.637431, 632.677484, 299.864127)" fill-opacity="1" fill="#fffbfb" fill-rule="nonzero" stroke-linejoin="round" d="M -13.06782 -10.627484 C -13.06782 -10.627484 13.062479 -10.627484 13.062479 -10.627484 C 13.062479 -10.627484 13.062479 10.63096 13.062479 10.63096 C 13.062479 10.63096 -13.06782 10.63096 -13.06782 10.63096 C -13.06782 10.63096 -13.06782 -10.627484 -13.06782 -10.627484 Z M -13.06782 -10.627484 " stroke="#879cd0" stroke-width="6" stroke-opacity="1" stroke-miterlimit="4"/><path fill="#f9a55d" d="M 523.902344 607.851562 C 523.902344 607.851562 499.660156 607.851562 499.660156 607.851562 C 499.660156 607.851562 501.289062 605.972656 501.289062 605.972656 C 501.289062 605.972656 523.464844 605.972656 523.464844 605.972656 C 489.769531 461 467.929688 430.503906 467.929688 430.503906 C 467.929688 430.503906 451.113281 441.257812 451.113281 441.257812 C 451.113281 441.257812 440.042969 605.972656 440.042969 605.972656 C 440.042969 605.972656 478.953125 605.972656 478.953125 605.972656 C 478.953125 605.972656 478.78125 607.851562 478.78125 607.851562 C 478.78125 607.851562 477.804688 607.851562 477.804688 607.851562 C 477.804688 607.851562 477.804688 608.640625 477.804688 608.640625 C 477.804688 608.640625 477.242188 640.410156 488.601562 651.777344 C 488.601562 651.777344 529.15625 631.097656 529.15625 631.097656 C 527.371094 623.042969 525.617188 615.296875 523.890625 607.851562 C 523.890625 607.851562 523.902344 607.851562 523.902344 607.851562 Z M 523.902344 607.851562 " fill-opacity="1" fill-rule="nonzero"/><path fill="#f9a55d" d="M 467.9375 430.511719 C 444.683594 418.414062 422.21875 410.335938 400.921875 405.269531 C 400.921875 405.308594 400.921875 405.347656 400.921875 405.382812 C 400.921875 428.03125 380.902344 446.390625 356.203125 446.390625 C 331.5 446.390625 311.480469 428.03125 311.480469 405.382812 C 311.480469 403.453125 311.640625 401.546875 311.917969 399.6875 C 253.460938 406.179688 216.242188 430.511719 216.242188 430.511719 C 242.332031 456.601562 235.359375 605.976562 235.359375 605.976562 C 235.359375 605.976562 474.710938 605.976562 474.710938 605.976562 C 484.511719 566.105469 467.929688 430.511719 467.929688 430.511719 C 467.929688 430.511719 467.9375 430.511719 467.9375 430.511719 Z M 467.9375 430.511719 " fill-opacity="1" fill-rule="nonzero"/><path fill="#f9a55d" d="M 400.921875 405.269531 C 396.207031 398.921875 391.484375 393.878906 386.796875 389.925781 C 386.378906 407.558594 372.839844 421.722656 356.1875 421.722656 C 339.539062 421.722656 325.558594 407.113281 325.558594 389.085938 C 325.558594 388.632812 325.574219 388.1875 325.59375 387.738281 C 317.074219 393.566406 311.925781 399.691406 311.925781 399.691406 C 311.644531 401.554688 311.484375 403.453125 311.484375 405.390625 C 311.484375 428.039062 331.507812 446.398438 356.207031 446.398438 C 380.910156 446.398438 400.929688 428.039062 400.929688 405.390625 C 400.929688 405.351562 400.929688 405.3125 400.929688 405.277344 C 400.929688 405.277344 400.921875 405.269531 400.921875 405.269531 Z M 400.921875 405.269531 " fill-opacity="1" fill-rule="nonzero"/><path stroke-linecap="round" transform="matrix(0.637431, 0, 0, 0.637431, 363.567086, 513.792066)" fill="none" stroke-linejoin="round" d="M -7.943109 -144.609935 C -7.943109 -144.609935 -1.453431 -125.20831 -7.943109 -105.831198 C -7.943109 -105.831198 4.055748 -69.889781 4.055748 -69.889781 C 4.055748 -69.889781 7.947104 -47.430225 7.947104 -8.032548 C 7.947104 -8.032548 7.947104 144.612767 7.947104 144.612767 " stroke="#000001" stroke-width="6" stroke-opacity="1" stroke-miterlimit="4"/><path fill="#fde5cc" d="M 331.398438 361.011719 C 331.398438 361.011719 325.898438 386.304688 325.898438 386.304688 C 325.898438 386.304688 325.59375 387.726562 325.59375 387.726562 C 325.574219 388.171875 325.558594 388.621094 325.558594 389.074219 C 325.558594 407.097656 339.269531 421.707031 356.1875 421.707031 C 369.511719 421.707031 380.832031 412.636719 385.046875 399.980469 C 386.097656 396.816406 386.714844 393.4375 386.796875 389.914062 C 386.796875 389.914062 388.953125 374.359375 388.953125 374.359375 C 388.953125 374.359375 331.40625 361 331.40625 361 C 331.40625 361 331.398438 361.011719 331.398438 361.011719 Z M 331.398438 361.011719 " fill-opacity="1" fill-rule="nonzero"/><path fill="#000001" d="M 388.945312 375.132812 C 388.945312 375.132812 331.398438 361.769531 331.398438 361.769531 C 331.398438 361.769531 325.898438 387.066406 325.898438 387.066406 C 329.328125 394.816406 336.707031 404.203125 352.613281 408.082031 C 352.613281 408.082031 370.078125 414.351562 385.039062 400.742188 C 386.089844 397.582031 386.710938 394.203125 386.792969 390.679688 C 386.792969 390.679688 388.945312 375.125 388.945312 375.125 C 388.945312 375.125 388.945312 375.132812 388.945312 375.132812 Z M 388.945312 375.132812 " fill-opacity="1" fill-rule="nonzero"/><path fill="#879cd0" d="M 386.65625 478.53125 C 391.09375 478.53125 394.691406 482.125 394.691406 486.5625 C 394.691406 490.996094 391.09375 494.59375 386.65625 494.59375 C 382.222656 494.59375 378.625 490.996094 378.625 486.5625 C 378.625 482.125 382.222656 478.53125 386.65625 478.53125 Z M 386.65625 478.53125 " fill-opacity="1" fill-rule="nonzero"/><path fill="#879cd0" d="M 387.878906 516.136719 C 392.3125 516.136719 395.910156 519.730469 395.910156 524.167969 C 395.910156 528.605469 392.3125 532.199219 387.878906 532.199219 C 383.441406 532.199219 379.847656 528.605469 379.847656 524.167969 C 379.847656 519.730469 383.441406 516.136719 387.878906 516.136719 Z M 387.878906 516.136719 " fill-opacity="1" fill-rule="nonzero"/><path fill="#879cd0" d="M 387.878906 555.230469 C 392.3125 555.230469 395.910156 558.828125 395.910156 563.261719 C 395.910156 567.699219 392.3125 571.292969 387.878906 571.292969 C 383.441406 571.292969 379.847656 567.699219 379.847656 563.261719 C 379.847656 558.828125 383.441406 555.230469 387.878906 555.230469 Z M 387.878906 555.230469 " fill-opacity="1" fill-rule="nonzero"/><path stroke-linecap="round" transform="matrix(0.637431, 0, 0, 0.637431, 356.29147, 423.012431)" fill="none" stroke-linejoin="round" d="M -69.600823 -36.592115 C -69.600823 -36.592115 -80.043138 31.644489 3.476995 36.596009 C 3.476995 36.596009 65.309716 34.635011 70.016111 -27.835033 " stroke="#000001" stroke-width="6" stroke-opacity="1" stroke-miterlimit="4"/><path stroke-linecap="round" transform="matrix(0.637431, 0, 0, 0.637431, 479.805747, 555.05296)" fill="none" stroke-linejoin="round" d="M -13.820571 -151.741771 C -13.820571 -151.741771 -9.867934 -109.929616 -9.867934 -109.929616 C -9.867934 -109.929616 -3.120875 -42.83897 -3.120875 21.359205 C -3.120875 21.359205 -3.120875 84.068246 -3.120875 84.068246 C -3.120875 84.068246 -3.997196 133.920493 13.817246 151.741063 " stroke="#000001" stroke-width="6" stroke-opacity="1" stroke-miterlimit="4"/><path fill="#f9a55d" d="M 236.1875 541.144531 C 271.609375 450.308594 244.230469 433.226562 227.203125 430.554688 C 227.203125 430.554688 216.246094 430.511719 216.246094 430.511719 C 216.246094 430.511719 99.761719 521.882812 83.765625 626.699219 C 83.765625 626.699219 190.953125 602.394531 190.953125 602.394531 C 190.953125 602.394531 209.523438 585.246094 226.785156 557.652344 C 230.007812 552.503906 233.183594 546.984375 236.1875 541.152344 C 236.1875 541.152344 236.1875 541.144531 236.1875 541.144531 Z M 236.1875 541.144531 " fill-opacity="1" fill-rule="nonzero"/><path stroke-linecap="round" transform="matrix(0.637431, 0, 0, 0.637431, 263.70084, 485.885324)" fill="none" stroke-linejoin="round" d="M -43.334472 95.030929 C 8.166239 -44.849514 -27.775178 -69.582602 -27.775178 -69.582602 C -27.775178 -69.582602 -3.507827 -86.588132 43.335514 -95.03268 " stroke="#000001" stroke-width="6" stroke-opacity="1" stroke-miterlimit="4"/><path fill="#fffbfb" d="M 591.386719 432.730469 C 591.386719 432.730469 510.914062 417.972656 510.914062 417.972656 C 510.914062 417.972656 463.296875 521.867188 463.296875 521.867188 C 463.296875 521.867188 450.3125 554.996094 403.675781 554.996094 C 403.675781 554.996094 438.800781 596.988281 513.914062 567.105469 C 513.914062 567.105469 591.394531 432.738281 591.394531 432.738281 C 591.394531 432.738281 591.386719 432.730469 591.386719 432.730469 Z M 591.386719 432.730469 " fill-opacity="1" fill-rule="nonzero"/><path fill="#fde5cc" d="M 515.917969 527.320312 C 515.917969 527.320312 509.476562 580.59375 509.476562 580.59375 C 509.476562 580.59375 529.078125 588.078125 529.078125 588.078125 C 529.078125 588.078125 562.601562 564.664062 562.601562 564.664062 C 562.601562 564.664062 556.699219 527.644531 556.699219 527.644531 C 556.699219 527.644531 529.871094 522.386719 529.871094 522.386719 C 529.871094 522.386719 515.917969 527.320312 515.917969 527.320312 Z M 515.917969 527.320312 " fill-opacity="1" fill-rule="nonzero"/><path fill="#fde5cc" d="M 584.007812 502.039062 C 584.007812 502.039062 570.824219 483.449219 580.84375 464.992188 C 580.84375 464.992188 587.699219 449.699219 570.296875 457.609375 C 570.296875 457.609375 546.5625 466.046875 558.164062 492.414062 C 558.164062 492.414062 565.546875 519.304688 565.546875 519.304688 C 565.546875 519.304688 584 502.039062 584 502.039062 C 584 502.039062 584.007812 502.039062 584.007812 502.039062 Z M 584.007812 502.039062 " fill-opacity="1" fill-rule="nonzero"/><path fill="#fde5cc" d="M 584.386719 586.441406 C 584.386719 586.441406 580.339844 537.625 592.484375 517.296875 C 592.484375 517.296875 602.601562 498.320312 577.644531 488.875 C 577.644531 488.875 547.964844 478.082031 547.964844 478.082031 C 547.964844 478.082031 533.800781 472.691406 529.753906 486.179688 C 529.753906 486.179688 521.660156 499.46875 547.964844 508.671875 C 547.964844 508.671875 514.914062 514.320312 514.914062 514.320312 C 514.914062 514.320312 502.101562 519.273438 507.496094 531.730469 C 507.496094 531.730469 515.023438 543.847656 524.355469 534.515625 C 524.355469 534.515625 512.210938 552.828125 540.539062 552.828125 C 540.539062 552.828125 529.074219 589.367188 529.074219 589.367188 C 529.074219 589.367188 584.375 586.433594 584.375 586.433594 C 584.375 586.433594 584.386719 586.441406 584.386719 586.441406 Z M 584.386719 586.441406 " fill-opacity="1" fill-rule="nonzero"/><path stroke-linecap="round" transform="matrix(0.637431, 0, 0, 0.637431, 568.214279, 472.1075)" fill="none" stroke-linejoin="round" d="M 14.794165 26.304828 C 14.794165 26.304828 -20.657003 13.417393 -20.657003 13.417393 C -20.657003 13.417393 -20.755053 -26.305074 20.652647 -26.305074 " stroke="#000001" stroke-width="6" stroke-opacity="1" stroke-miterlimit="4"/><path stroke-linecap="round" transform="matrix(0.637431, 0, 0, 0.637431, 532.387489, 533.049017)" fill="none" stroke-linejoin="round" d="M -12.588364 2.300812 C -12.588364 2.300812 12.592077 -2.301405 12.592077 -2.301405 " stroke="#000001" stroke-width="6" stroke-opacity="1" stroke-miterlimit="4"/><path stroke-linecap="round" transform="matrix(0.637431, 0, 0, 0.637431, 530.458561, 533.017841)" fill="none" stroke-linejoin="round" d="M 38.567981 -82.138655 C 38.567981 -82.138655 5.905107 -100.890699 -1.105461 -73.479623 C -1.105461 -73.479623 -12.093178 -49.08971 27.46383 -38.193914 C 27.46383 -38.193914 -24.386185 -29.332654 -24.386185 -29.332654 C -24.386185 -29.332654 -45.761064 -25.778345 -36.023483 -2.019628 C -36.023483 -2.019628 -31.856362 16.689519 -9.574521 2.349721 C -9.574521 2.349721 -29.110965 31.078343 15.814275 31.078343 C 15.814275 31.078343 -2.171754 88.400767 -2.171754 88.400767 " stroke="#000001" stroke-width="6" stroke-opacity="1" stroke-miterlimit="4"/><path fill="#f9a55d" d="M 506.152344 552.414062 C 506.152344 552.414062 544.59375 581.953125 592.476562 548.902344 C 592.476562 548.902344 600.574219 651.785156 600.574219 651.785156 C 600.574219 651.785156 488.613281 651.785156 488.613281 651.785156 C 488.613281 651.785156 506.152344 552.414062 506.152344 552.414062 Z M 506.152344 552.414062 " fill-opacity="1" fill-rule="nonzero"/><path stroke-linecap="round" transform="matrix(0.637431, 0, 0, 0.637431, 540.5466, 600.34259)" fill="none" stroke-linejoin="round" d="M -81.472911 80.703019 C -81.472911 80.703019 -53.957656 -75.190199 -53.957656 -75.190199 C -53.957656 -75.190199 9.909599 -38.139592 81.467644 -80.699378 " stroke="#000001" stroke-width="6" stroke-opacity="1" stroke-miterlimit="4"/><path fill="#000001" d="M 342.011719 672.441406 C 342.011719 672.441406 353.96875 682.359375 353.96875 682.359375 C 353.96875 682.359375 380.703125 688.269531 380.703125 688.269531 C 380.703125 688.269531 415.085938 675.144531 415.085938 675.144531 C 415.085938 675.144531 450.40625 643.6875 450.40625 643.6875 C 450.40625 643.6875 424.828125 641.363281 424.828125 641.363281 C 424.828125 641.363281 342.011719 672.441406 342.011719 672.441406 Z M 342.011719 672.441406 " fill-opacity="1" fill-rule="nonzero"/><path fill="#879cd0" d="M 275.902344 656.648438 C 275.902344 656.648438 353.96875 682.359375 353.96875 682.359375 C 353.96875 682.359375 450.40625 643.6875 450.40625 643.6875 C 450.40625 643.6875 428.097656 627.625 428.097656 627.625 C 428.097656 627.625 357.609375 658.226562 357.609375 658.226562 C 357.609375 658.226562 294.273438 641.363281 294.273438 641.363281 C 294.273438 641.363281 275.902344 656.648438 275.902344 656.648438 Z M 275.902344 656.648438 " fill-opacity="1" fill-rule="nonzero"/><path fill="#fde5cc" d="M 275 597.679688 C 275 597.679688 307.429688 590.597656 307.429688 590.597656 C 307.429688 590.597656 334.507812 571.765625 367.261719 593.730469 C 367.261719 593.730469 384.992188 608.292969 392.917969 616.21875 C 392.917969 616.21875 410.929688 632.621094 392.917969 641.902344 C 392.917969 641.902344 381.996094 651.183594 367.800781 630.984375 C 367.800781 630.984375 369.441406 638.078125 359.609375 641.355469 C 359.609375 641.355469 353.289062 645.433594 347.027344 639.167969 C 347.027344 639.167969 349.605469 649.539062 337.957031 655 C 337.957031 655 330.976562 657.546875 325.222656 651.78125 C 325.222656 651.78125 326.859375 658.105469 317.03125 660.917969 C 317.03125 660.917969 307.425781 660.457031 307.425781 654.453125 C 307.425781 654.453125 290.84375 660.917969 290.84375 660.917969 C 290.84375 660.917969 253.152344 629.339844 253.152344 629.339844 C 253.152344 629.339844 274.992188 597.679688 274.992188 597.679688 C 274.992188 597.679688 275 597.679688 275 597.679688 Z M 275 597.679688 " fill-opacity="1" fill-rule="nonzero"/><path fill="#f9a55d" d="M 84.851562 633.15625 C 84.214844 631.117188 83.839844 628.964844 83.769531 626.699219 C 82.652344 590.710938 126.503906 573.003906 155.683594 571.671875 C 170.273438 571 184.972656 572.460938 199.285156 575.292969 C 205.976562 576.617188 212.621094 578.253906 219.148438 580.261719 C 224.054688 581.773438 230.984375 586.179688 235.96875 586.441406 C 235.96875 586.441406 307.429688 590.589844 307.429688 590.589844 C 307.429688 590.589844 267.488281 611.9375 290.851562 660.917969 C 290.851562 660.917969 136.179688 660.917969 135.617188 660.917969 C 118.472656 660.917969 90.691406 651.765625 84.851562 633.15625 Z M 84.851562 633.15625 " fill-opacity="1" fill-rule="nonzero"/><path stroke-linecap="round" transform="matrix(0.637431, 0, 0, 0.637431, 363.152241, 625.428397)" fill="none" stroke-linejoin="round" d="M 7.292622 8.703954 C 7.292622 8.703954 -7.292301 -8.706032 -7.292301 -8.706032 " stroke="#000001" stroke-width="6" stroke-opacity="1" stroke-miterlimit="4"/><path stroke-linecap="round" transform="matrix(0.637431, 0, 0, 0.637431, 343.815778, 635.072628)" fill="none" stroke-linejoin="round" d="M 5.038299 6.424764 C 5.038299 6.424764 -5.042457 -6.425901 -5.042457 -6.425901 " stroke="#000001" stroke-width="6" stroke-opacity="1" stroke-miterlimit="4"/><path stroke-linecap="round" transform="matrix(0.637431, 0, 0, 0.637431, 322.917614, 646.635635)" fill="none" stroke-linejoin="round" d="M 3.616147 8.072432 C 3.616147 8.072432 -3.615033 -8.075161 -3.615033 -8.075161 " stroke="#000001" stroke-width="6" stroke-opacity="1" stroke-miterlimit="4"/><path stroke-linecap="round" transform="matrix(0.637431, 0, 0, 0.637431, 304.295086, 647.971043)" fill="none" stroke-linejoin="round" d="M 4.91143 10.16908 C 4.91143 10.16908 -4.911944 -10.170147 -4.911944 -10.170147 " stroke="#000001" stroke-width="6" stroke-opacity="1" stroke-miterlimit="4"/><path stroke-linecap="round" transform="matrix(0.637431, 0, 0, 0.637431, 216.546379, 581.579511)" fill="none" stroke-linejoin="round" d="M -142.569909 -5.866784 C -142.569909 -5.866784 -69.179557 -31.555858 30.457529 7.627334 C 30.457529 7.627334 142.571466 14.135396 142.571466 14.135396 " stroke="#000001" stroke-width="6" stroke-opacity="1" stroke-miterlimit="4"/><path fill="#000001" d="M 368.636719 355.28125 C 381.476562 354.429688 394.777344 351.070312 405.429688 343.589844 C 414.289062 337.371094 426.472656 322.703125 422.410156 310.832031 C 418.875 300.515625 407.726562 305.652344 399.878906 304.867188 C 392.785156 304.160156 386.480469 300.863281 381.207031 296.167969 C 377.152344 292.558594 374.605469 288.292969 369.394531 286.285156 C 357.183594 281.574219 346.863281 289.367188 340.609375 299.589844 C 340.609375 299.589844 327.382812 292.597656 314.824219 305.15625 C 302.683594 317.296875 311.046875 334.515625 317.253906 347.421875 C 319.152344 351.367188 335.988281 383.953125 343.824219 377.074219 C 343.824219 377.074219 368.644531 355.277344 368.644531 355.277344 C 368.644531 355.277344 368.636719 355.28125 368.636719 355.28125 Z M 368.636719 355.28125 " fill-opacity="1" fill-rule="nonzero"/><path fill="#fde5cc" d="M 357.515625 403.902344 C 357.515625 403.902344 351.21875 402.535156 351.21875 402.535156 C 334.347656 398.871094 323.640625 382.226562 327.304688 365.355469 C 327.304688 365.355469 332.449219 341.660156 332.449219 341.660156 C 336.113281 324.789062 352.757812 314.082031 369.628906 317.746094 C 369.628906 317.746094 375.925781 319.113281 375.925781 319.113281 C 392.796875 322.773438 403.507812 339.421875 399.84375 356.292969 C 399.84375 356.292969 394.699219 379.988281 394.699219 379.988281 C 391.035156 396.859375 374.386719 407.566406 357.515625 403.902344 Z M 357.515625 403.902344 " fill-opacity="1" fill-rule="nonzero"/><path fill="#fffbfb" d="M 350.261719 370.867188 C 358.789062 376.140625 369.574219 382.199219 379.945312 377.3125 C 390.386719 375.984375 387.410156 383.53125 387.410156 383.53125 C 385.160156 393.890625 370.191406 396.28125 361.542969 394.726562 C 351.617188 392.933594 340.328125 384.035156 340.882812 373.429688 C 340.882812 373.429688 341.304688 365.328125 350.261719 370.867188 Z M 350.261719 370.867188 " fill-opacity="1" fill-rule="nonzero"/><path fill="#000001" d="M 322.921875 357.851562 C 322.921875 357.851562 332.15625 377.089844 338.960938 349.683594 C 338.960938 349.683594 340.609375 341.628906 340.609375 341.628906 C 340.609375 341.628906 342.535156 329.996094 352.621094 329.996094 C 352.621094 329.996094 372.480469 342.496094 400.921875 336.664062 C 400.921875 336.664062 396.449219 319.164062 396.449219 319.164062 C 396.449219 319.164062 370.199219 308.75 370.199219 308.75 C 370.199219 308.75 343.949219 307.5 343.949219 307.5 C 343.949219 307.5 328.953125 330.414062 328.953125 330.414062 C 328.953125 330.414062 322.914062 357.863281 322.914062 357.863281 C 322.914062 357.863281 322.921875 357.851562 322.921875 357.851562 Z M 322.921875 357.851562 " fill-opacity="1" fill-rule="nonzero"/><path fill="#879cd0" d="M 328.390625 715.226562 C 328.390625 715.226562 478.582031 715.226562 478.582031 715.226562 C 478.582031 715.226562 656.074219 697.5625 656.074219 697.5625 C 656.074219 697.5625 670.984375 654.230469 670.984375 654.230469 C 670.984375 654.230469 415.132812 684.730469 415.132812 684.730469 C 415.132812 684.730469 350.445312 697.828125 350.445312 697.828125 C 350.445312 697.828125 332.347656 701.488281 332.347656 701.488281 C 332.347656 701.488281 319.046875 705.886719 328.382812 715.234375 C 328.382812 715.234375 328.390625 715.226562 328.390625 715.226562 Z M 328.390625 715.226562 " fill-opacity="1" fill-rule="nonzero"/><path fill="#879cd0" d="M 474.023438 682.84375 C 474.023438 682.84375 545.574219 535.628906 545.574219 535.628906 C 545.574219 535.628906 551.042969 509.132812 596.441406 509.132812 C 596.441406 509.132812 710.261719 502.261719 710.261719 502.261719 C 710.261719 502.261719 739.984375 497.351562 718.394531 537.59375 C 718.394531 537.59375 664.628906 668.121094 664.628906 668.121094 C 664.628906 668.121094 658.890625 689.710938 635.644531 689.710938 C 635.644531 689.710938 487.269531 705.410156 487.269531 705.410156 C 487.269531 705.410156 463.832031 703.796875 474.019531 682.839844 C 474.019531 682.839844 474.023438 682.84375 474.023438 682.84375 Z M 474.023438 682.84375 " fill-opacity="1" fill-rule="nonzero"/><path fill="#fffbfb" d="M 600.136719 586.15625 C 614.957031 574.152344 633.351562 572.300781 641.230469 582.023438 C 649.105469 591.746094 643.476562 609.359375 628.65625 621.363281 C 613.839844 633.367188 595.441406 635.21875 587.566406 625.496094 C 579.691406 615.773438 585.320312 598.160156 600.136719 586.15625 Z M 600.136719 586.15625 " fill-opacity="1" fill-rule="nonzero"/><path fill="#000001" d="M 355.328125 353.621094 C 357.527344 354.128906 358.898438 356.324219 358.390625 358.519531 C 357.882812 360.71875 355.691406 362.089844 353.492188 361.582031 C 351.292969 361.074219 349.921875 358.882812 350.429688 356.683594 C 350.9375 354.484375 353.128906 353.113281 355.328125 353.621094 Z M 355.328125 353.621094 " fill-opacity="1" fill-rule="nonzero"/><path fill="#000001" d="M 387.09375 360.519531 C 389.292969 361.027344 390.664062 363.21875 390.15625 365.417969 C 389.648438 367.617188 387.453125 368.988281 385.253906 368.480469 C 383.054688 367.972656 381.683594 365.777344 382.191406 363.582031 C 382.699219 361.382812 384.894531 360.011719 387.09375 360.519531 Z M 387.09375 360.519531 " fill-opacity="1" fill-rule="nonzero"/><path stroke-linecap="round" transform="matrix(0.637431, 0, 0, 0.637431, 388.624436, 352.148381)" fill="none" stroke-linejoin="round" d="M 11.546261 4.197851 C 11.546261 4.197851 3.788062 -10.681222 -11.544491 -0.814951 " stroke="#000001" stroke-width="6" stroke-opacity="1" stroke-miterlimit="4"/><path stroke-linecap="round" transform="matrix(0.637431, 0, 0, 0.637431, 357.804684, 345.455393)" fill="none" stroke-linejoin="round" d="M 11.545382 4.194203 C 11.545382 4.194203 3.787183 -10.684869 -11.54537 -0.81247 " stroke="#000001" stroke-width="6" stroke-opacity="1" stroke-miterlimit="4"/></svg>